<svg xmlns="http://www.w3.org/2000/svg" width="256" height="256"><path fill-opacity=".016" d="M0 128.004v128.004l128.25-.254 128.25-.254.254-127.75L257.008 0H0v128.004m.485.496c0 70.4.119 99.053.265 63.672.146-35.38.146-92.98 0-128C.604 29.153.485 58.1.485 128.5" fill="#1976D2" fill-rule="evenodd"/><path fill-opacity=".259" d="M105.922 1.552C59.423 9.972 21.407 42.713 6.559 87.127c-8.554 25.588-8.897 53.757-.963 79.044 12.374 39.436 42.525 70.23 81.531 83.27 25.588 8.554 53.757 8.897 79.044.963 39.441-12.376 70.278-42.573 83.258-81.531 1.901-5.705 3.973-13.523 4.603-17.373.631-3.85 1.557-7.781 2.058-8.736 1.16-2.214 1.203-31.063.045-30.347-.476.294-1.148-1.868-1.493-4.804-.345-2.936-1.779-9.312-3.186-14.17-5.14-17.736-11.51-30.194-22.979-44.943-18.999-24.432-47.724-41.536-78.858-46.954-10.908-1.899-33.197-1.896-43.697.006m-12.145 68.28L61.084 88.5l-.042 38.506L61 165.512l32.25 19.338c17.737 10.636 32.551 19.408 32.919 19.494.368.086 15.316-8.169 33.218-18.344l32.549-18.5.032-6.309c.018-3.47-.306-6.114-.718-5.875C172.568 166.122 126.884 192 126.488 192c-.303 0-13.142-7.485-28.532-16.633l-27.983-16.632.264-32.603.263-32.602 26-14.824c14.3-8.153 26.906-15.271 28.013-15.818 1.677-.827 6.695 1.66 30 14.869L182.5 93.62l.271 19.052.271 19.052-8.759 5.234-8.758 5.235-10.744-5.301-10.743-5.301-.269-21.204-.269-21.204-20.75 12.15-20.75 12.15v51.679l8.75-4.748a4665.142 4665.142 0 0021.088-11.545l12.338-6.797 10.693 5.362 10.693 5.363 13.236-7.974 13.237-7.973-.267-24.163-.268-24.163-30-17.205c-16.5-9.462-31.132-17.868-32.515-18.679-2.43-1.425-3.618-.845-35.208 17.192m28.973 46.136L112 122.924v12.038c0 6.621.235 12.038.523 12.038.288 0 5.458-2.812 11.489-6.25l10.965-6.25.012-12.75c.006-7.013-.327-12.747-.739-12.744-.412.003-5.588 3.136-11.5 6.962M.402 128c0 8.525.154 12.012.341 7.75.188-4.262.188-11.237 0-15.5-.187-4.263-.341-.775-.341 7.75" fill="#1976D2" fill-rule="evenodd"/><path fill-opacity=".269" d="M108 1.579C90.274 4.426 71.577 11.874 56 22.293 46.364 28.739 28.739 46.364 22.293 56c-29.557 44.189-29.557 99.811 0 144 6.446 9.636 24.071 27.261 33.707 33.707 44.189 29.557 99.811 29.557 144 0 9.636-6.446 27.261-24.071 33.707-33.707 9.355-13.987 15.764-28.887 19.355-45 1.042-4.675 1.904-10.161 1.916-12.191.012-2.03.472-3.969 1.022-4.309.569-.351 1-5.363 1-11.618 0-6.05-.355-10.781-.789-10.513-.433.268-1.35-3.634-2.036-8.672-2.258-16.584-9.913-35.916-20.468-51.697-6.446-9.636-24.071-27.261-33.707-33.707-13.919-9.31-28.704-15.684-45-19.399-11.806-2.691-34.482-3.326-47-1.315M93.067 69.841C75.229 80.103 60.716 88.838 60.817 89.25c.101.412.183 17.825.183 38.694v37.944l32.647 19.601 32.646 19.601 32.854-18.749L192 167.591v-6.295c0-3.463-.233-6.296-.519-6.296-.285 0-14.665 8.093-31.955 17.985s-31.903 18.104-32.473 18.25c-.571.146-13.63-7.16-29.021-16.235l-27.984-16.5-.024-32.14L70 94.219l27.531-15.62c15.143-8.591 27.904-15.728 28.358-15.859.455-.132 13.49 6.903 28.969 15.634L183 94.247l-.024 18.627-.024 18.626-9.006 5.311-9.007 5.312-10.469-5.616-10.47-5.616v-20.945c0-11.52-.213-20.946-.473-20.946-.793 0-39.938 23.147-41.294 24.419-.973.911-1.206 7.142-1 26.852l.267 25.664 20.951-11.467C133.975 148.16 143.757 143 144.189 143c.433 0 5.405 2.296 11.049 5.102l10.262 5.103 13.221-7.853 13.222-7.852.028-24.546.029-24.545-32.774-18.705c-18.026-10.287-32.988-18.663-33.25-18.613-.262.05-15.071 8.488-32.909 18.75m29.683 46.343L112 123.211v23.979l4.25-2.458c2.338-1.352 7.287-4.191 11-6.308l6.75-3.85v-12.787c0-7.033-.113-12.752-.25-12.708-.137.043-5.088 3.241-11 7.105M.378 128c0 6.325.163 8.912.361 5.75.198-3.163.198-8.338 0-11.5-.198-3.163-.361-.575-.361 5.75" fill="#1976D2" fill-rule="evenodd"/><path fill-opacity=".654" d="M118 .638C80.108 4.167 45.288 24.005 23.957 54.215.791 87.026-5.559 128.603 6.675 167.374c7.485 23.721 24.041 46.992 44.274 62.232 33.348 25.119 76.15 32.373 116.425 19.733 18.212-5.716 39.614-19.163 52.876-33.222 18.177-19.268 30.684-45.134 33.797-69.893.603-4.798 1.514-10.106 2.025-11.795 1.279-4.231 1.219-15.426-.072-13.429-.703 1.088-.974.225-.985-3.14-.041-12.414-5.755-32.528-13.597-47.86-18.116-35.418-50.937-59.951-90.157-67.391C142.617.969 125.4-.051 118 .638M92.75 69.711L60 88.414v77.302l31.92 19.143c17.556 10.528 32.615 19.409 33.465 19.735 1.324.508 55.951-29.665 64.865-35.829 2.518-1.741 2.75-2.444 2.75-8.333 0-3.538-.174-6.432-.386-6.432-.213 0-15.196 8.468-33.297 18.819l-32.911 18.819-28.203-16.85L70 157.938l.007-31.719.006-31.719 27.863-15.75c15.325-8.662 28.26-15.735 28.744-15.717.484.019 13.186 7.106 28.227 15.75L182.195 94.5l-.049 18.469-.048 18.468-7.751 4.782c-4.262 2.629-8.328 4.781-9.035 4.781-.707 0-5.567-2.127-10.799-4.726L145 131.549v-21.858c0-12.022-.39-21.708-.868-21.524-.477.183-10.377 5.92-22 12.749L101 113.331v26.335c0 14.484.242 26.334.537 26.334.296 0 9.986-5.171 21.533-11.492l20.996-11.491 10.717 5.341L165.5 153.7l13.5-8.163 13.5-8.163.268-24.106.267-24.107-2.767-1.914c-4.444-3.073-62.923-36.247-63.889-36.243-.484.002-15.616 8.42-33.629 18.707m29.518 47.128l-10.232 6.661-.018 11.25c-.01 6.188.235 11.25.543 11.25.309 0 5.245-2.588 10.969-5.75l10.407-5.75.031-12.25c.018-6.737-.306-12.21-.718-12.161-.412.049-5.354 3.086-10.982 6.75M.328 127.5c.005 3.85.185 5.302.402 3.228.216-2.075.213-5.225-.008-7-.221-1.776-.398-.078-.394 3.772" fill="#1976D2" fill-rule="evenodd"/></svg>